<?xml version="1.0" encoding="UTF-8" standalone="no"?><!DOCTYPE svg PUBLIC "-//W3C//DTD SVG 1.1//EN" "http://www.w3.org/Graphics/SVG/1.1/DTD/svg11.dtd"><svg width="100%" height="100%" viewBox="0 0 1521 611" version="1.1" xmlns="http://www.w3.org/2000/svg" xmlns:xlink="http://www.w3.org/1999/xlink" xml:space="preserve" xmlns:serif="http://www.serif.com/" style="fill-rule:evenodd;clip-rule:evenodd;"><g id="Capa-1" serif:id="Capa 1"><g id="g2"><path id="path20109" d="M1175.593,263.464l-147.124,-146.239l-86.237,79.71l72.067,68.241l48.123,-46.841l-33.601,-32.205l-40.774,30.966l-3.5,-3.523l34.707,-36.16c5.208,-5.22 10.899,-6.918 17.607,-1.204l34.945,33.736c4.182,5.242 5.106,10.388 1.646,15.406c0,0 -21.149,28.156 -50.188,53.559c-9.053,6.632 -16.922,4.993 -24.067,-1.703l-76.798,-66.876c-7.09,-8.128 -5.575,-18.307 1.835,-25.892l88.322,-94.222c8.346,-9.672 27.725,-9.053 36.134,0.293l154.009,147.284l-27.105,25.669Z" style="fill:#ff7d23;fill-rule:nonzero;"/><g style="filter:url(#_Effect1);"><path id="path20111" d="M921.392,197.473c-0.265,2.845 0.562,5.564 3.008,8.438c0.045,0.053 0.037,0.112 0.083,0.168l76.275,66.25c0.056,0.053 0.112,0.11 0.166,0.166c2.947,2.762 5.468,4.012 7.769,4.261c2.262,0.243 4.803,-0.367 8.354,-2.924c0.061,-0.045 0.104,-0.037 0.168,-0.083c28.055,-24.633 48.51,-51.759 48.789,-52.131c1.818,-2.148 2.304,-6.849 0.87,-8.808l-36.05,-33.423c-3.85,-2.067 -7.359,-0.246 -9.683,2.049l-34.914,31.389l36.418,-31.806c2.269,-1.725 4.073,0.136 6.146,2.092l33.515,32.273c2.377,2.24 3.624,4.182 1.29,6.466l-47.468,47.39c-2.217,2.179 -6.178,2.218 -8.438,0.083l-72.098,-68.255c-2.387,-2.289 -2.346,-6.612 0.083,-8.856l86.217,-79.7c2.252,-2.087 6.144,-2.048 8.354,0.083l142.943,142.107l18.212,-17.21l-149.376,-142.859c-0.115,-0.107 -0.227,-0.219 -0.334,-0.334c-2.697,-2.997 -8.08,-5.18 -13.618,-5.263c-5.538,-0.083 -10.75,1.897 -13.367,4.929c-0.053,0.056 -0.11,0.112 -0.166,0.168l-88.389,94.237c-0.027,0.027 -0.056,0.056 -0.083,0.083c-2.914,2.983 -4.409,6.127 -4.678,9.023l0.001,-0.002Z" style="fill:#ffb44f;fill-opacity:0.69;fill-rule:nonzero;"/></g><g style="filter:url(#_Effect2);"><path id="path20113" d="M923.748,190.545l93.844,-99.406c0,0 7.647,-4.403 14.367,-4.403c6.72,0 12.976,5.793 12.976,5.793l89.442,84.576l-4.866,1.39l-91.296,-85.271c0,0 -4.403,-2.781 -9.964,-2.086c-5.561,0.695 -10.427,4.866 -10.427,4.866l-94.076,94.54Z" style="fill:#fff;fill-opacity:0.57;fill-rule:nonzero;"/></g><path id="path20115" d="M1097.023,306.594l-153.144,13.671c0,0 7.524,37.159 -13.887,33.926c-21.411,-3.233 -7.723,-50.714 -7.723,-50.714l175.74,-6.096l-0.987,9.214Z" style="fill:#ff7d23;fill-rule:nonzero;"/><g style="filter:url(#_Effect3);"><path id="path20117" d="M921.861,334.346c0.225,2.692 0.717,5.165 1.427,7.183c1.421,4.037 3.162,6.097 7.024,6.677c4.269,0.64 5.879,-0.39 7.433,-2.43c1.554,-2.04 2.633,-5.737 2.998,-9.777c0.73,-8.08 -1.019,-17.042 -1.019,-17.042c-0.438,-2.201 1.351,-4.578 3.588,-4.765l118.087,-10.256l-0.03,-3.045l-136.199,4.462c-0.857,3.289 -2.76,11.063 -3.322,20.472c-0.176,2.924 -0.216,5.829 0.008,8.521l0.004,-0Z" style="fill:#ffb44f;fill-opacity:0.69;fill-rule:nonzero;"/></g><g style="filter:url(#_Effect4);"><path id="path20119" d="M1064.679,301.864c0,0 -138.257,3.551 -139.145,3.995c-0.888,0.444 -3.551,14.647 -3.551,17.532c0,2.885 0.888,9.321 0.888,9.321c0,0 3.329,-22.192 5.104,-23.08c1.775,-0.888 136.704,-5.326 136.704,-5.326l-0,-2.441Z" style="fill:#fff;fill-opacity:0.57;fill-rule:nonzero;"/></g><path id="path20121" d="M1039.808,318.189c7.607,3.57 9.538,15.511 4.311,26.649c-5.227,11.138 -15.647,17.283 -23.254,13.713c-7.607,-3.57 -9.538,-15.511 -4.311,-26.649c5.227,-11.138 15.647,-17.283 23.254,-13.713Z" style="fill:#ff7d23;"/><path id="path20123" d="M998.386,334.422c7.607,3.57 9.538,15.511 4.311,26.649c-5.227,11.138 -15.647,17.283 -23.254,13.713c-7.607,-3.57 -9.538,-15.511 -4.311,-26.649c5.227,-11.138 15.647,-17.283 23.254,-13.713Z" style="fill:#ff7d23;"/><g style="filter:url(#_Effect5);"><path id="path20125" d="M1038.098,320.516c5.54,2.6 6.946,11.296 3.139,19.408c-3.807,8.112 -11.395,12.587 -16.935,9.987c-5.54,-2.6 -6.946,-11.296 -3.139,-19.408c3.807,-8.112 11.395,-12.587 16.935,-9.987Z" style="fill:#ffb44f;fill-opacity:0.69;"/></g><g style="filter:url(#_Effect6);"><path id="path20127" d="M995.547,336.326c5.343,2.508 6.7,10.895 3.028,18.719c-3.672,7.823 -10.991,12.139 -16.333,9.632c-5.343,-2.508 -6.7,-10.895 -3.028,-18.719c3.672,-7.823 10.991,-12.139 16.333,-9.632Z" style="fill:#ffb44f;fill-opacity:0.69;"/></g><path id="path20129" d="M1255.795,349.268l147.124,146.239l86.237,-79.71l-72.067,-68.24l-48.123,46.841l33.601,32.205l40.774,-30.966l3.5,3.523l-34.707,36.16c-5.207,5.22 -10.899,6.918 -17.607,1.204l-34.945,-33.736c-4.182,-5.242 -5.106,-10.388 -1.646,-15.406c0,0 21.149,-28.157 50.188,-53.56c9.053,-6.632 16.923,-4.992 24.067,1.703l76.798,66.876c7.09,8.128 5.575,18.307 -1.835,25.892l-88.322,94.222c-8.346,9.672 -27.725,9.054 -36.134,-0.293l-154.009,-147.284l27.105,-25.669Z" style="fill:#ff7d23;fill-rule:nonzero;"/><g style="filter:url(#_Effect7);"><path id="path20131" d="M1509.996,415.259c0.265,-2.845 -0.562,-5.564 -3.008,-8.438c-0.045,-0.053 -0.037,-0.112 -0.083,-0.168l-76.275,-66.25c-0.056,-0.053 -0.112,-0.11 -0.166,-0.166c-2.947,-2.762 -5.468,-4.012 -7.769,-4.261c-2.262,-0.243 -4.803,0.367 -8.354,2.924c-0.061,0.045 -0.104,0.037 -0.168,0.083c-28.055,24.633 -48.51,51.759 -48.789,52.131c-1.818,2.148 -2.304,6.849 -0.87,8.808l36.05,33.423c3.85,2.067 7.359,0.246 9.683,-2.049l34.914,-31.389l-36.418,31.806c-2.269,1.725 -4.073,-0.136 -6.146,-2.092l-33.515,-32.273c-2.377,-2.24 -3.624,-4.182 -1.29,-6.466l47.468,-47.39c2.217,-2.179 6.178,-2.218 8.438,-0.083l72.098,68.255c2.387,2.289 2.346,6.612 -0.083,8.856l-86.217,79.7c-2.252,2.087 -6.144,2.048 -8.354,-0.083l-142.943,-142.107l-18.212,17.21l149.376,142.859c0.115,0.107 0.227,0.219 0.334,0.334c2.697,2.997 8.08,5.18 13.618,5.263c5.538,0.083 10.75,-1.897 13.367,-4.929c0.053,-0.056 0.11,-0.112 0.166,-0.168l88.389,-94.237c0.027,-0.027 0.056,-0.056 0.083,-0.083c2.914,-2.983 4.409,-6.127 4.678,-9.023l-0.001,0.002Z" style="fill:#ffb44f;fill-opacity:0.69;fill-rule:nonzero;"/></g><path id="path20133" d="M1334.365,306.138l153.143,-13.671c0,0 -7.524,-37.159 13.887,-33.926c21.411,3.233 7.722,50.714 7.722,50.714l-175.74,6.096l0.987,-9.213Z" style="fill:#ff7d23;fill-rule:nonzero;"/><g style="filter:url(#_Effect8);"><path id="path20135" d="M1509.437,277.407c-0.225,-2.692 -0.717,-5.165 -1.427,-7.183c-1.421,-4.037 -3.162,-6.097 -7.024,-6.677c-4.269,-0.64 -5.879,0.39 -7.433,2.43c-1.554,2.04 -2.633,5.737 -2.998,9.777c-0.73,8.08 1.019,17.042 1.019,17.042c0.438,2.201 -1.351,4.578 -3.588,4.765l-118.087,10.256l0.03,3.045l136.199,-4.462c0.857,-3.289 2.76,-11.063 3.322,-20.472c0.176,-2.924 0.216,-5.829 -0.008,-8.521l-0.004,0Z" style="fill:#ffb44f;fill-opacity:0.69;fill-rule:nonzero;"/></g><g style="filter:url(#_Effect9);"><path id="path20137" d="M1370.345,306.769l120.896,-11.543c0,0 -5.342,-31.016 5.194,-32.797c10.537,-1.781 12.232,7.753 12.232,7.753c0,0 -5.983,-6.79 -11.928,-3.931c-5.757,2.769 -1.936,30.755 -1.936,30.755l-124.269,11.671l-0.188,-1.909Z" style="fill:#fff;fill-opacity:0.57;fill-rule:nonzero;"/></g><path id="path20139" d="M1391.58,294.542c-7.607,-3.57 -9.538,-15.511 -4.311,-26.649c5.227,-11.138 15.647,-17.283 23.254,-13.713c7.607,3.57 9.538,15.511 4.311,26.649c-5.227,11.138 -15.647,17.283 -23.254,13.713Z" style="fill:#ff7d23;"/><path id="path20141" d="M1433.002,278.31c-7.607,-3.57 -9.538,-15.511 -4.311,-26.649c5.227,-11.138 15.647,-17.283 23.254,-13.713c7.607,3.57 9.538,15.511 4.311,26.649c-5.227,11.138 -15.647,17.283 -23.254,13.713Z" style="fill:#ff7d23;"/><g style="filter:url(#_Effect10);"><path id="path20143" d="M1394.585,287.283c-5.54,-2.6 -6.946,-11.296 -3.139,-19.408c3.807,-8.112 11.395,-12.587 16.935,-9.987c5.54,2.6 6.946,11.296 3.139,19.408c-3.807,8.112 -11.395,12.587 -16.935,9.987Z" style="fill:#ffb44f;fill-opacity:0.69;"/></g><g style="filter:url(#_Effect11);"><path id="path20145" d="M1436.815,269.965c-5.343,-2.508 -6.7,-10.895 -3.028,-18.719c3.672,-7.823 10.991,-12.139 16.333,-9.632c5.343,2.508 6.7,10.895 3.028,18.719c-3.672,7.823 -10.991,12.139 -16.333,9.632Z" style="fill:#ffb44f;fill-opacity:0.69;"/></g><path id="path20147" d="M1172.792,346.467l-146.239,147.124l79.71,86.237l68.24,-72.067l-46.841,-48.123l-32.205,33.601l30.966,40.774l-3.523,3.5l-36.16,-34.707c-5.22,-5.208 -6.918,-10.899 -1.205,-17.607l33.736,-34.945c5.242,-4.182 10.388,-5.106 15.406,-1.646c0,0 28.157,21.149 53.56,50.188c6.632,9.053 4.992,16.922 -1.703,24.067l-66.876,76.798c-8.127,7.09 -18.306,5.575 -25.892,-1.835l-94.222,-88.322c-9.672,-8.346 -9.054,-27.725 0.293,-36.134l147.284,-154.009l25.669,27.105Z" style="fill:#ff7d23;fill-rule:nonzero;"/><g style="filter:url(#_Effect12);"><path id="path20149" d="M1107.844,597.888c2.845,0.265 5.564,-0.562 8.438,-3.008c0.053,-0.045 0.112,-0.037 0.168,-0.083l66.25,-76.275c0.053,-0.056 0.11,-0.112 0.166,-0.166c2.762,-2.947 4.012,-5.468 4.261,-7.769c0.243,-2.262 -0.367,-4.803 -2.924,-8.354c-0.045,-0.061 -0.037,-0.104 -0.083,-0.168c-24.633,-28.055 -51.759,-48.51 -52.131,-48.789c-2.148,-1.818 -6.849,-2.304 -8.808,-0.87l-33.423,36.05c-2.067,3.85 -0.246,7.359 2.049,9.683l31.389,34.914l-31.806,-36.418c-1.725,-2.269 0.136,-4.073 2.092,-6.146l32.273,-33.515c2.24,-2.377 4.182,-3.624 6.466,-1.29l47.39,47.468c2.179,2.217 2.218,6.178 0.083,8.438l-68.255,72.098c-2.289,2.387 -6.612,2.346 -8.856,-0.083l-79.7,-86.217c-2.087,-2.252 -2.048,-6.144 0.083,-8.354l142.107,-142.943l-17.21,-18.212l-142.859,149.376c-0.107,0.115 -0.219,0.227 -0.334,0.334c-2.997,2.697 -5.18,8.08 -5.263,13.618c-0.083,5.538 1.897,10.75 4.929,13.367c0.056,0.053 0.112,0.11 0.168,0.166l94.237,88.389c0.027,0.027 0.056,0.056 0.083,0.083c2.983,2.914 6.127,4.409 9.023,4.678l-0.002,-0.001Z" style="fill:#ffb44f;fill-opacity:0.69;fill-rule:nonzero;"/></g><path id="path20151" d="M1215.922,425.037l13.671,153.144c0,0 37.159,-7.524 33.926,13.887c-3.233,21.411 -50.714,7.723 -50.714,7.723l-6.096,-175.74l9.213,0.987Z" style="fill:#ff7d23;fill-rule:nonzero;"/><path id="path20153" d="M1227.517,482.251c3.57,-7.607 15.511,-9.538 26.649,-4.311c11.138,5.227 17.283,15.647 13.713,23.254c-3.57,7.607 -15.511,9.538 -26.649,4.311c-11.138,-5.227 -17.283,-15.647 -13.713,-23.254Z" style="fill:#ff7d23;"/><path id="path20155" d="M1243.75,523.674c3.57,-7.607 15.511,-9.538 26.649,-4.311c11.138,5.227 17.283,15.647 13.713,23.254c-3.57,7.607 -15.511,9.538 -26.649,4.311c-11.138,-5.227 -17.283,-15.647 -13.713,-23.254Z" style="fill:#ff7d23;"/><g style="filter:url(#_Effect13);"><path id="path20157" d="M1231.098,484.111c2.6,-5.54 11.296,-6.946 19.408,-3.139c8.112,3.807 12.587,11.395 9.987,16.935c-2.6,5.54 -11.296,6.946 -19.408,3.139c-8.112,-3.807 -12.587,-11.395 -9.987,-16.935Z" style="fill:#ffb44f;fill-opacity:0.69;"/></g><g style="filter:url(#_Effect14);"><path id="path20159" d="M1248.127,525.705c2.508,-5.343 10.895,-6.7 18.719,-3.028c7.823,3.672 12.139,10.991 9.632,16.333c-2.508,5.343 -10.895,6.7 -18.719,3.028c-7.823,-3.672 -12.139,-10.991 -9.632,-16.333Z" style="fill:#ffb44f;fill-opacity:0.69;"/></g><path id="path20161" d="M1258.596,266.265l146.239,-147.124l-79.71,-86.237l-68.241,72.067l46.841,48.123l32.204,-33.601l-30.966,-40.774l3.523,-3.5l36.16,34.707c5.22,5.207 6.918,10.899 1.204,17.607l-33.736,34.945c-5.242,4.182 -10.388,5.106 -15.406,1.646c0,0 -28.156,-21.149 -53.559,-50.188c-6.632,-9.053 -4.993,-16.923 1.703,-24.067l66.876,-76.798c8.128,-7.09 18.307,-5.575 25.892,1.835l94.222,88.321c9.672,8.346 9.053,27.725 -0.293,36.135l-147.284,154.009l-25.669,-27.105Z" style="fill:#ff7d23;fill-rule:nonzero;"/><g style="filter:url(#_Effect15);"><path id="path20163" d="M1324.587,12.064c-2.845,-0.265 -5.564,0.562 -8.438,3.008c-0.053,0.045 -0.112,0.037 -0.168,0.083l-66.25,76.275c-0.053,0.056 -0.11,0.112 -0.166,0.166c-2.762,2.947 -4.012,5.468 -4.261,7.769c-0.243,2.262 0.367,4.803 2.924,8.354c0.045,0.061 0.037,0.104 0.083,0.168c24.633,28.055 51.759,48.51 52.131,48.789c2.148,1.818 6.849,2.304 8.808,0.87l33.423,-36.05c2.067,-3.85 0.246,-7.359 -2.049,-9.683l-31.389,-34.914l31.806,36.418c1.725,2.269 -0.136,4.073 -2.092,6.146l-32.273,33.515c-2.24,2.377 -4.182,3.624 -6.466,1.29l-47.39,-47.468c-2.179,-2.217 -2.218,-6.178 -0.083,-8.438l68.255,-72.098c2.289,-2.387 6.612,-2.346 8.856,0.083l79.7,86.217c2.087,2.252 2.048,6.144 -0.083,8.354l-142.107,142.943l17.21,18.212l142.859,-149.376c0.107,-0.115 0.219,-0.227 0.334,-0.334c2.997,-2.697 5.18,-8.08 5.263,-13.618c0.083,-5.538 -1.897,-10.75 -4.929,-13.367c-0.056,-0.053 -0.112,-0.11 -0.168,-0.166l-94.237,-88.389c-0.027,-0.027 -0.056,-0.056 -0.083,-0.083c-2.983,-2.914 -6.127,-4.409 -9.023,-4.678l0.002,0.001Z" style="fill:#ffb44f;fill-opacity:0.69;fill-rule:nonzero;"/></g><path id="path20165" d="M1215.466,187.695l-13.671,-153.143c0,0 -37.159,7.524 -33.926,-13.887c3.233,-21.411 50.714,-7.722 50.714,-7.722l6.096,175.74l-9.214,-0.987Z" style="fill:#ff7d23;fill-rule:nonzero;"/><g style="filter:url(#_Effect16);"><path id="path20167" d="M1186.453,10.858c-2.693,0.222 -5.166,0.712 -7.185,1.42c-4.038,1.417 -6.1,3.156 -6.683,7.018c-0.645,4.269 0.384,5.879 2.423,7.435c2.038,1.556 5.735,2.639 9.774,3.008c8.08,0.738 17.043,-1.003 17.043,-1.003c2.201,-0.436 4.576,1.356 4.762,3.592l10.14,118.097l3.045,-0.027l-4.329,-136.203c-3.288,-0.861 -11.06,-2.77 -20.468,-3.342c-2.924,-0.179 -5.829,-0.222 -8.521,0l0,0.004Z" style="fill:#ffb44f;fill-opacity:0.69;fill-rule:nonzero;"/></g><path id="path20169" d="M1203.871,130.48c-3.57,7.607 -15.511,9.538 -26.649,4.311c-11.138,-5.227 -17.283,-15.647 -13.713,-23.254c3.57,-7.607 15.511,-9.538 26.649,-4.311c11.138,5.227 17.283,15.647 13.713,23.254Z" style="fill:#ff7d23;"/><g style="filter:url(#_Effect17);"><path id="path20171" d="M1210.157,20.212l7.988,129.613l2.011,0.11l-6.731,-134.211c0,0 -13.44,-4.937 -27.154,-3.84c-13.714,1.097 -13.714,5.212 -13.714,6.034c0,0.823 7.954,-1.92 17.554,-1.92c9.6,0 20.046,4.214 20.046,4.214Z" style="fill:#fff;fill-opacity:0.57;fill-rule:nonzero;"/></g><path id="path20173" d="M1187.638,89.058c-3.57,7.607 -15.511,9.538 -26.649,4.311c-11.138,-5.227 -17.283,-15.647 -13.713,-23.254c3.57,-7.607 15.511,-9.538 26.649,-4.311c11.138,5.227 17.283,15.647 13.713,23.254Z" style="fill:#ff7d23;"/><g style="filter:url(#_Effect18);"><path id="path20175" d="M1323.226,12.862c-0.544,0.037 -2.486,0.142 -3.045,0.297c-4.474,1.243 -7.269,3.965 -7.269,3.965c0,0 9.001,-3.01 13.724,-0.525c4.723,2.486 98.865,92.028 101.102,95.011c5.159,7.064 6.155,14.062 6.155,14.062c0,0 2.587,-9.594 -1.142,-14.814c-3.729,-5.22 -102.424,-95.991 -102.424,-95.991c0,0 -3.295,-2.267 -7.101,-2.005Zm-14.286,65.665c0,0 31.268,34.947 33.754,39.67c2.486,4.723 -1.281,8.88 -1.281,8.88c0,0 4.083,-3.698 5.085,-5.759c1.257,-2.586 -1.06,-5.958 -2.303,-7.201c-1.243,-1.243 -35.255,-35.589 -35.255,-35.589Zm-53.969,22.139c0,0 -3.085,2.277 -3.415,6.354c-0.33,4.076 44.435,49.579 48.164,50.822c4.574,1.243 6.621,-3.082 6.621,-3.082c0,0 -2.487,0.828 -3.729,0.828c-1.243,0 -45.484,-45.314 -47.721,-48.546c-2.237,-3.232 0.08,-6.376 0.08,-6.376l0.001,0Zm152.884,20.385l-77.027,78.781l3.425,6.683c0,0 65.622,-72.316 70.594,-78.531c4.972,-6.215 3.008,-6.934 3.008,-6.934Z" style="fill:#fff;fill-opacity:0.57;fill-rule:nonzero;"/></g><g style="filter:url(#_Effect19);"><path id="path20177" d="M1196.467,126.535c-2.6,5.54 -11.296,6.946 -19.408,3.139c-8.112,-3.807 -12.587,-11.395 -9.987,-16.935c2.6,-5.54 11.296,-6.946 19.408,-3.139c8.112,3.807 12.587,11.395 9.987,16.935Z" style="fill:#ffb44f;fill-opacity:0.69;"/></g><g style="filter:url(#_Effect20);"><path id="path20179" d="M1167.071,113.368c0,0 4.655,-6.457 12.891,-6.034c10.697,0.549 20.571,14.811 20.571,14.811c0,0 -13.44,-9.051 -20.023,-9.874c-6.583,-0.823 -13.44,1.097 -13.44,1.097Z" style="fill:#fff;fill-opacity:0.57;fill-rule:nonzero;"/></g><g style="filter:url(#_Effect21);"><path id="path20181" d="M1179.438,84.594c-2.508,5.343 -10.895,6.7 -18.719,3.028c-7.823,-3.672 -12.139,-10.991 -9.632,-16.333c2.508,-5.343 10.895,-6.7 18.719,-3.028c7.823,3.672 12.139,10.991 9.632,16.333Z" style="fill:#ffb44f;fill-opacity:0.69;"/></g><g style="filter:url(#_Effect22);"><path id="path20183" d="M1149.791,71.403c0,0 4.655,-6.457 12.891,-6.034c10.697,0.549 20.571,14.811 20.571,14.811c0,0 -13.44,-9.051 -20.023,-9.874c-6.583,-0.823 -13.44,1.097 -13.44,1.097Z" style="fill:#fff;fill-opacity:0.57;fill-rule:nonzero;"/></g><g style="filter:url(#_Effect23);"><path id="path20185" d="M1085.941,389.392l-87.058,90.097c0,0 -1.954,3.474 -2.171,7.816c-0.217,4.342 0.868,8.25 0.868,8.25c0,0 2.171,-11.289 6.079,-15.631c3.908,-4.342 85.321,-86.406 85.321,-86.406l-3.039,-4.125Z" style="fill:#fff;fill-opacity:0.57;fill-rule:nonzero;"/></g><g style="filter:url(#_Effect24);"><path id="path20187" d="M1321.231,420.279l81.398,81.398c0,0 89.449,-79.908 90.94,-82.591c1.491,-2.684 -89.747,89.747 -89.747,89.747l-86.169,-86.765l3.578,-1.789Z" style="fill:#fff;fill-opacity:0.57;fill-rule:nonzero;"/></g><g style="filter:url(#_Effect25);"><path id="path20189" d="M1433.661,250.112c0,0 5.045,-9.794 13.059,-9.943c8.014,-0.147 9.349,10.685 9.349,10.685c0,0 -4.876,-6.465 -10.24,-6.53c-5.364,-0.064 -12.169,5.788 -12.169,5.788Z" style="fill:#fff;fill-opacity:0.57;fill-rule:nonzero;"/></g><g style="filter:url(#_Effect26);"><path id="path20191" d="M1391.811,266.436c0,0 5.045,-9.794 13.059,-9.943c8.014,-0.147 9.349,10.685 9.349,10.685c0,0 -5.936,-6.827 -10.24,-6.53c-4.304,0.297 -12.169,5.788 -12.169,5.788Z" style="fill:#fff;fill-opacity:0.57;fill-rule:nonzero;"/></g><g style="filter:url(#_Effect27);"><path id="path20193" d="M1359.098,388.673l52.179,-52.775c4.585,-4.195 9.549,-4.615 15.504,-0.895l80.802,70.963c0,0 -69.736,-57.906 -83.837,-68.529c-1.31,-0.987 -4.946,-1.185 -7.491,0.086c-2.546,1.272 -57.157,51.149 -57.157,51.149l0,0.001Z" style="fill:#fff;fill-opacity:0.57;fill-rule:nonzero;"/></g><g style="filter:url(#_Effect28);"><path id="path20195" d="M1366.552,396.724l35.78,32.5l34.885,-26.238c0,0 -33.394,30.711 -34.885,30.412c-1.491,-0.298 -35.78,-36.674 -35.78,-36.674Z" style="fill:#fff;fill-opacity:0.57;fill-rule:nonzero;"/></g><g style="filter:url(#_Effect29);"><path id="path20197" d="M1245.362,599.503c2.694,-0.209 5.169,-0.687 7.191,-1.386c4.045,-1.397 6.115,-3.127 6.717,-6.986c0.665,-4.265 -0.356,-5.881 -2.387,-7.447c-2.031,-1.566 -5.722,-2.666 -9.76,-3.054c-8.076,-0.777 -17.047,0.921 -17.047,0.921c-2.203,0.425 -4.57,-1.378 -4.745,-3.615l-9.578,-118.144l-3.045,0.012l3.681,136.222c3.284,0.876 11.047,2.823 20.452,3.439c2.923,0.193 5.828,0.25 8.521,0.041l0,-0.004Z" style="fill:#ffb44f;fill-opacity:0.69;fill-rule:nonzero;"/></g><g style="filter:url(#_Effect30);"><path id="path20199" d="M1229.879,485.786c0,0 1.954,-8.033 12.158,-8.033c10.204,0 18.237,10.204 18.237,10.204c0,0 -15.197,-6.513 -20.625,-6.513c-5.428,0 -9.769,4.342 -9.769,4.342Z" style="fill:#fff;fill-opacity:0.57;fill-rule:nonzero;"/></g><g style="filter:url(#_Effect31);"><path id="path20201" d="M1247.682,527.469c0,0 1.954,-8.033 12.158,-8.033c10.204,0 18.237,10.204 18.237,10.204c0,0 -15.197,-6.513 -20.625,-6.513c-5.428,0 -9.769,4.342 -9.769,4.342Z" style="fill:#fff;fill-opacity:0.57;fill-rule:nonzero;"/></g><g style="filter:url(#_Effect32);"><path id="path20203" d="M1217.939,463.641l9.553,118.32c0,0 10.421,-1.737 15.631,-1.737c5.21,0 15.848,2.171 16.934,7.599c1.086,5.428 -0.651,6.296 -0.651,6.296c0,0 -1.085,-10.855 -18.454,-10.204c-17.368,0.651 -16.5,0.651 -16.5,0.651l-8.684,-123.097l2.171,2.171Z" style="fill:#fff;fill-opacity:0.57;fill-rule:nonzero;"/></g><g style="filter:url(#_Effect33);"><path id="path20205" d="M1084.855,487.956l37.559,-36.907c0,0 2.605,-1.954 5.21,-1.954c2.605,0 5.645,1.086 5.645,1.086l50.802,48.196c0,0 3.256,4.342 3.908,6.296c0.652,1.954 -54.71,-50.802 -56.881,-51.67c-2.171,-0.869 -5.428,-0.869 -7.816,0.868c-2.388,1.737 -38.427,34.085 -38.427,34.085Z" style="fill:#fff;fill-opacity:0.57;fill-rule:nonzero;"/></g><g style="filter:url(#_Effect34);"><path id="path20207" d="M1093.322,494.253l31.046,39.512c0,0 -31.697,-36.039 -31.914,-36.907c-0.217,-0.868 0.869,-2.605 0.869,-2.605Z" style="fill:#fff;fill-opacity:0.57;fill-rule:nonzero;"/></g><g style="filter:url(#_Effect35);"><path id="path20209" d="M1180.38,508.581c0,0 -2.171,0 -3.256,0.652c-1.085,0.651 -69.69,73.814 -69.69,73.814l-82.933,-89.012l0,-3.039c0,0 -3.256,2.822 -1.303,5.21c1.954,2.388 84.67,91.4 84.67,91.4l72.512,-79.025Z" style="fill:#fff;fill-opacity:0.57;fill-rule:nonzero;"/></g><g style="filter:url(#_Effect36);"><path id="path20211" d="M992.837,336.948l-11.373,7.514c0,0 4.468,-8.124 11.779,-8.124c7.311,0 9.952,9.342 9.952,9.342c0,0 -6.093,-6.905 -11.17,-6.093c-5.077,0.812 -10.561,4.874 0.812,-2.64Z" style="fill:#fff;fill-opacity:0.57;fill-rule:nonzero;"/></g><g style="filter:url(#_Effect37);"><path id="path20213" d="M1035.284,321.513l-11.373,7.514c0,0 4.468,-8.124 11.779,-8.124c7.311,0 9.952,9.342 9.952,9.342c0,0 -6.093,-6.905 -11.17,-6.093c-5.077,0.812 -10.561,4.874 0.812,-2.64Z" style="fill:#fff;fill-opacity:0.57;fill-rule:nonzero;"/></g><g style="filter:url(#_Effect38);"><path id="path20215" d="M987.933,212.326l34.757,-34.989c0,0 3.244,-2.317 5.793,-2.317c2.549,0 6.72,2.549 6.72,2.549c0,0 36.148,34.294 36.843,36.842c0.695,2.549 0.695,5.793 0.695,5.793c0,0 -1.622,-5.793 -9.269,-12.513c-7.646,-6.72 -31.05,-28.501 -31.05,-28.501c0,0 -2.317,-1.39 -4.634,-0.927c-2.317,0.463 -39.855,34.062 -39.855,34.062Z" style="fill:#fff;fill-opacity:0.57;fill-rule:nonzero;"/></g><g style="filter:url(#_Effect39);"><path id="path20217" d="M940.432,194.947c0,0 -1.622,2.085 -0.695,2.781c0.927,0.695 73.685,70.441 73.685,70.441l4.403,-2.549c0,0 -2.086,3.939 -3.707,4.171c-1.622,0.233 -1.854,0 -16.452,-12.744c-14.598,-12.744 -61.405,-57.002 -60.478,-59.087c0.927,-2.085 3.244,-3.012 3.244,-3.012Z" style="fill:#fff;fill-opacity:0.57;fill-rule:nonzero;"/></g><circle id="path20221" cx="1216.876" cy="306.239" r="147.669" style="fill:#fff;stroke:#0055d4;stroke-width:18.11px;"/><circle id="path20223" cx="1216.875" cy="306.24" r="156.068" style="fill:#0055d4;"/><circle id="path20225" cx="1216.875" cy="306.24" r="156.068" style="fill:url(#_Radial40);"/><g style="filter:url(#_Effect41);"><circle id="path20227" cx="1216.876" cy="283.386" r="118.634" style="fill:url(#_Radial42);"/></g><g style="filter:url(#_Effect43);"><path id="path20229" d="M1141.81,195.016c-2.114,0.087 -3.978,0.614 -5.398,1.779c-0.786,7.607 1.895,17.369 7.703,22.71c-0.501,-0.65 -1.106,-1.827 -1.939,-3.767c-2.577,-4.383 -7.215,-23.824 1.729,-14.443c5.243,11.015 6.951,24.459 15.093,34.222c6.205,10.189 17.993,10.847 27.931,13.396c8.629,4.186 11.405,16.58 20.7,19.048c6.618,8.604 -1.684,19.373 -5.293,27.681c-7.239,12.823 7.614,20.608 12.315,30.664c9.513,13.131 18.535,30.519 11.372,47.043c-4.233,11.954 -5.261,25.161 -8.28,37.623c-1.343,8.841 -3.25,27.415 6.289,29.146c1.912,-9.561 1.156,-19.85 8.856,-27.053c7.575,-14.412 22.332,-23.402 33.539,-33.594c5.168,-6.141 15.185,-20.08 25.102,-26.897c4.398,-7.443 3.082,-20.093 11.162,-27.472c6.19,-6.547 9.265,-21.745 -2.62,-23.547c-15.841,-6.315 -28.872,-18.301 -39.408,-31.867c-11.41,-6.146 -18.575,-7.825 -30.745,-11.741c-0.741,-0.24 -1.758,6.392 -3.976,6.37c-3.033,-0.029 0.7,-8.486 -5.892,-8.234c-1.104,3.635 -7.407,9.384 -11.739,10.622c-1.672,-2.728 -7.609,-8.454 -7.179,-13.082c-0.198,-9.323 -12.105,-9.552 -7.546,-18.419c-2.723,-7.813 -13.664,11.47 -18.132,-1.727c-2.641,-11.465 -3.101,-30.889 -13.678,-33.071c-5.097,-2.019 -13.624,-5.649 -19.966,-5.39Zm65.458,32.227c1.047,0.328 5.725,-1.098 10.875,-1.016c4.853,0.079 12.952,4.073 14.421,2.799c-2.288,-7.587 -18.426,-6.192 -18.123,-6.156c-2.438,2.051 -8.918,3.718 -7.173,4.373Zm53.129,14.423c-0.403,0.712 -2.453,0.89 -2.455,-0.57c0.805,-1.411 2.373,-0.2 2.455,0.57Zm-9.748,-2.814c-9.164,-0.283 -3.14,-4.951 -8.005,-4.845c-3.411,0.071 -2.444,3.654 -8.356,3.103c5.436,2.56 5.802,1.93 9.589,3.953c5.374,-0.318 8.674,-0.243 6.773,-2.211Z" style="fill:#0055d4;fill-rule:nonzero;stroke:#ff7d23;stroke-width:3.02px;"/></g><path id="path20231" d="M1141.81,195.017c-2.114,0.088 -3.978,0.613 -5.398,1.779c-0.786,7.607 1.895,17.369 7.703,22.71c-0.501,-0.649 -1.106,-1.827 -1.939,-3.767c-2.577,-4.383 -7.215,-23.824 1.729,-14.443c5.243,11.015 6.951,24.459 15.093,34.222c6.205,10.189 17.993,10.847 27.932,13.396c8.629,4.186 11.405,16.58 20.7,19.048c6.618,8.604 -1.684,19.373 -5.293,27.681c-7.239,12.823 7.614,20.608 12.315,30.664c9.513,13.131 18.535,30.519 11.372,47.043c-4.233,11.954 -5.261,25.161 -8.28,37.623c-1.343,8.841 -3.25,27.415 6.288,29.146c1.912,-9.561 1.156,-19.85 8.856,-27.053c7.575,-14.412 22.332,-23.402 33.539,-33.594c5.169,-6.141 15.185,-20.08 25.102,-26.897c4.398,-7.443 3.082,-20.092 11.162,-27.472c6.19,-6.547 9.265,-21.745 -2.62,-23.547c-15.841,-6.315 -28.872,-18.301 -39.408,-31.868c-11.41,-6.146 -18.575,-7.825 -30.745,-11.741c-0.741,-0.242 -1.758,6.392 -3.976,6.37c-3.034,-0.03 0.7,-8.485 -5.891,-8.234c-1.104,3.635 -7.407,9.384 -11.739,10.622c-1.672,-2.728 -7.609,-8.454 -7.179,-13.082c-0.196,-9.322 -12.105,-9.552 -7.546,-18.419c-2.723,-7.813 -13.664,11.47 -18.132,-1.727c-2.641,-11.465 -3.101,-30.889 -13.678,-33.071c-5.097,-2.019 -13.624,-5.649 -19.966,-5.39Zm65.458,32.227c1.047,0.328 5.725,-1.098 10.875,-1.016c4.854,0.079 12.952,4.073 14.421,2.799c-2.288,-7.587 -18.426,-6.192 -18.122,-6.157c-2.438,2.051 -8.918,3.718 -7.173,4.373Zm53.129,14.423c-0.403,0.712 -2.453,0.89 -2.455,-0.57c0.805,-1.411 2.373,-0.199 2.455,0.57Zm-9.748,-2.814c-9.164,-0.284 -3.14,-4.951 -8.005,-4.845c-3.411,0.072 -2.444,3.654 -8.356,3.103c5.436,2.56 5.802,1.93 9.589,3.953c5.374,-0.318 8.674,-0.242 6.773,-2.211Z" style="fill:#cf0;fill-rule:nonzero;stroke:#d4ff2a;stroke-width:3.02px;"/><path id="path20233" d="M1264.663,171.324c10.461,5.525 24.468,14.145 30.648,19.723c7.118,3.754 18.744,13.437 28.912,21.067c0,0 -14.064,-15.862 -26.717,-24.882c-10.131,-6.993 -21.561,-11.896 -32.843,-15.908Zm51.968,28.059l13.658,16.718l12.175,12.683l-10.076,-14.489l-15.757,-14.912Zm-27.109,-7.473c-17.049,-10.695 -47.593,-25.098 -47.593,-25.098c0,0 14.934,16.122 20.553,35.845c5.619,19.724 -1.693,34.741 -1.693,34.741c0,0 22.287,4.087 49.411,21.869c27.485,18.019 42.904,55.272 42.904,55.272c0,0 1.573,-20.912 -6.84,-50.728c-8.413,-29.816 -20.016,-45.529 -20.016,-45.529c0,0 -19.677,-15.677 -36.726,-26.372Zm43.331,31.622c6.137,11.002 13.755,22.68 16.206,32.147c5.299,8.844 9.69,23.818 14.12,40.865c0,0 -0.576,-31.493 -7.835,-43.989c-7.422,-12.067 -22.492,-29.022 -22.492,-29.022Z" style="fill:url(#_Linear44);fill-rule:nonzero;"/></g><g id="g1"><g id="Capa-11" serif:id="Capa 1"><path id="path20219-0" d="M341.179,30.694c-11.698,0.139 -21.118,9.667 -21.118,21.369c0,0.102 0.003,0.214 0.003,0.313l0,282.24c-0.001,11.815 9.582,21.398 21.398,21.398c11.816,0 21.399,-9.583 21.399,-21.399l0,-282.24c0,-0.099 0.001,-0.211 0.001,-0.313c0,-11.8 -9.57,-21.371 -21.371,-21.371c-0.102,0 -0.214,0.003 -0.313,0.003l0,-0.001l-0,0.001Zm-151.395,1.036c-11.698,0.141 -21.118,9.669 -21.118,21.371c0,0.102 0.003,0.214 0.003,0.313l0,220.306c0,45.165 37.037,82.203 82.203,82.203l38.084,0c0.303,0.009 0.611,0.016 0.915,0.016c11.801,0 21.371,-9.57 21.371,-21.371c0,-11.8 -9.57,-21.371 -21.371,-21.371c-0.304,0 -0.614,0.007 -0.915,0.021l-38.084,0c-22.228,0 -39.498,-17.27 -39.498,-39.498l0,-220.306c-0.001,-0.102 0.001,-0.211 0.001,-0.313c0,-11.801 -9.57,-21.372 -21.371,-21.372l-0.22,0l0,0.001Zm562.88,0c-11.665,0.187 -21.025,9.705 -21.025,21.368c0,0.105 0.003,0.211 0.003,0.313l0,220.306c0,45.167 36.943,82.203 82.108,82.203l38.084,0c0.303,0.012 0.61,0.019 0.915,0.019c11.801,0 21.371,-9.57 21.371,-21.371c0,-11.8 -9.57,-21.371 -21.371,-21.371c-0.306,0 -0.614,0.007 -0.917,0.021l-38.084,0c-22.228,0 -39.404,-17.27 -39.404,-39.498l0,-220.306c0,-0.1 0.001,-0.213 0.001,-0.314c0,-11.801 -9.57,-21.371 -21.371,-21.371c-0.102,0 -0.214,0.003 -0.313,0.003l0.001,-0.001Zm-653.19,0.377c-45.167,0 -82.203,36.943 -82.203,82.108l0,51.094c-10.031,1.96 -17.27,10.751 -17.27,20.976c0,10.221 7.239,19.014 17.27,20.973l0,127.359c-0.007,0.298 -0.018,0.613 -0.018,0.915c0,11.801 9.571,21.371 21.371,21.371c11.803,0 21.372,-9.57 21.372,-21.371c0,-0.303 -0.012,-0.616 -0.021,-0.915l0,-126.885l66.931,0c11.819,0 21.401,-9.583 21.401,-21.396c0,-11.816 -9.583,-21.399 -21.399,-21.399l-66.931,0l0,-50.717c0,-22.228 17.27,-39.404 39.498,-39.404l37.99,0c0.3,0.012 0.61,0.018 0.914,0.018c11.801,0 21.371,-9.57 21.371,-21.371c0,-11.8 -9.57,-21.371 -21.371,-21.371c-0.304,0 -0.614,0.007 -0.914,0.018l-37.99,0l-0.001,0.001l0,-0.003Zm343.234,2.64l-1.038,0.093c0,0 -17.372,1.803 -34.691,12.538c-17.32,10.735 -35.729,33.347 -35.729,66.647c0,30.713 10.299,53.907 24.791,69.57c14.494,15.662 31.285,24.443 44.59,33.277c15.111,10.034 29.239,18.296 38.179,26.773c8.941,8.476 13.197,15.151 13.197,28.658c0,27.965 -21.08,42.988 -36.199,42.988c-26.386,0 -52.319,-1.697 -52.319,-1.697c-0.392,-0.022 -0.794,-0.037 -1.194,-0.037c-11.006,0 -19.932,8.926 -19.932,19.93c0,10.483 8.125,19.177 18.584,19.887c0,0 26.819,1.697 54.864,1.697c39.314,0 75.981,-34.631 75.981,-82.769c0,-24.544 -11.509,-44.289 -25.548,-57.598c-14.037,-13.309 -30.041,-22.042 -43.552,-31.014c-15.319,-10.172 -28.823,-17.853 -37.425,-27.15c-8.602,-9.296 -14.235,-19.707 -14.235,-42.516c0,-20.222 7.922,-27.198 16.968,-32.805c8.67,-5.375 16.923,-6.592 17.628,-6.693l52.697,0c0.301,0.012 0.607,0.021 0.909,0.021c10.995,0 19.911,-8.917 19.911,-19.912c0,-10.995 -8.915,-19.912 -19.911,-19.912c-0.303,0 -0.608,0.009 -0.908,0.022l-55.62,0l-0.001,0.001l0.001,0.001Zm158.843,80.128c-33.412,0 -60.897,27.58 -60.897,60.992l0,119.062c0,33.413 27.484,60.992 60.897,60.992l56.279,0c33.412,0 60.992,-27.58 60.992,-60.992l0,-119.062c0,-33.413 -27.58,-60.992 -60.992,-60.992l-56.279,0Zm0,42.704l56.279,0c10.474,0 18.195,7.813 18.195,18.289l0,119.062c0,10.474 -7.719,18.289 -18.195,18.289l-56.279,0c-10.474,0 -18.195,-7.813 -18.195,-18.289l0,-119.062c0,-10.474 7.719,-18.289 18.195,-18.289Z" style="fill:#ff8e2a;fill-rule:nonzero;"/><path id="path1" d="M161.338,416.879c-3.858,-3.964 -7.759,-6.9 -11.702,-8.83c-3.964,-1.908 -8.116,-2.874 -12.459,-2.874c-7.529,0 -13.694,2.6 -18.476,7.801c-4.803,5.201 -7.193,11.893 -7.193,20.029c0,8.158 2.371,14.765 7.13,19.819c4.74,5.054 10.927,7.593 18.561,7.593c4.509,0 8.998,-0.943 13.486,-2.832c4.488,-1.888 8.956,-4.719 13.423,-8.494l-1.363,23.658c-3.817,2.579 -7.97,4.551 -12.499,5.893c-4.53,1.363 -9.228,2.035 -14.115,2.035c-5.243,0 -10.256,-0.818 -15.079,-2.453c-4.803,-1.637 -9.249,-4.069 -13.297,-7.256c-5.746,-4.509 -10.13,-10.004 -13.192,-16.505c-3.042,-6.48 -4.572,-13.568 -4.572,-21.224c0,-6.606 1.132,-12.793 3.376,-18.561c2.264,-5.767 5.537,-10.885 9.836,-15.31c4.342,-4.425 9.353,-7.801 15.059,-10.172c5.683,-2.348 11.681,-3.524 17.995,-3.524c5.013,0 9.773,0.692 14.323,2.098c4.551,1.384 8.893,3.503 13.025,6.333l-2.266,22.777l0,-0.001Z" style="fill:#0047b6;fill-rule:nonzero;"/><path id="path2" d="M201.923,449.47l23.405,0l-11.556,-27.895l-11.849,27.895Zm-33.347,28.314l45.448,-91.861l1.342,0l44.442,91.861l-22.253,0l-5.642,-12.96l-36.157,0l-5.769,12.96l-21.413,0l0.001,0Z" style="fill:#0047b6;fill-rule:nonzero;"/><path id="path3" d="M292.87,449.47l23.405,0l-11.556,-27.895l-11.849,27.895Zm-33.347,28.314l45.448,-91.861l1.342,0l44.442,91.861l-22.252,0l-5.642,-12.96l-36.157,0l-5.767,12.96l-21.414,0Z" style="fill:#0047b6;fill-rule:nonzero;"/><path id="path4" d="M433.057,428.33l0,43.308c-5.977,3 -11.809,5.243 -17.47,6.753c-5.683,1.532 -11.18,2.287 -16.507,2.287c-13.568,0 -24.811,-4.467 -33.765,-13.423c-8.956,-8.956 -13.423,-20.26 -13.423,-33.892c0,-13.78 4.53,-25.167 13.61,-34.165c9.082,-9.019 20.553,-13.528 34.459,-13.528c5.243,0 10.235,0.713 14.996,2.161c4.74,1.426 9.312,3.606 13.694,6.501l-2.285,22.293c-4.132,-4.174 -8.243,-7.236 -12.331,-9.165c-4.111,-1.95 -8.411,-2.914 -12.92,-2.914c-7.991,0 -14.597,2.663 -19.84,8.012c-5.243,5.348 -7.865,12.038 -7.865,20.05c0,8.451 2.538,15.331 7.593,20.679c5.054,5.348 11.577,8.012 19.547,8.012c1.845,0 3.713,-0.168 5.6,-0.482c1.887,-0.335 3.837,-0.797 5.893,-1.426l0,-12.941l-16.862,0l0,-18.12l37.878,-0Z" style="fill:#0047b6;fill-rule:nonzero;"/><path id="path5" d="M470.836,388.691l0,48.95c0,7.865 1.447,13.759 4.342,17.658c2.874,3.922 7.256,5.874 13.128,5.874c5.642,0 9.962,-1.824 12.918,-5.474c2.979,-3.629 4.467,-8.935 4.467,-15.897l0,-51.111l19.002,0l0,51.111c0,12.856 -3.292,22.902 -9.899,30.096c-6.585,7.193 -15.75,10.78 -27.474,10.78c-11.849,0 -21.056,-3.566 -27.641,-10.696c-6.564,-7.13 -9.857,-17.155 -9.857,-30.054l0,-51.236l21.015,0Z" style="fill:#0047b6;fill-rule:nonzero;"/><path id="path6" d="M561.403,449.47l23.405,0l-11.556,-27.895l-11.849,27.895Zm-33.347,28.314l45.448,-91.861l1.342,0l44.442,91.861l-22.253,0l-5.642,-12.96l-36.157,0l-5.767,12.96l-21.413,0Z" style="fill:#0047b6;fill-rule:nonzero;"/><path id="polygon6" d="M662.204,407.315l-39.765,0l3.377,-18.624l70.74,0l-44.189,70.217l44.189,0l-3.376,18.876l-75.272,0l44.295,-70.469Z" style="fill:#0047b6;fill-rule:nonzero;"/><path id="polygon7" d="M750.258,361.587l13.63,0l-18.118,17.154l-8.054,0l12.543,-17.154Z" style="fill:#0047b6;fill-rule:nonzero;"/><path id="path7" d="M730.287,388.682l0,48.958c0,7.862 1.447,13.756 4.345,17.66c2.869,3.922 7.256,5.869 13.125,5.869c5.643,0 9.964,-1.821 12.923,-5.471c2.976,-3.632 4.47,-8.941 4.47,-15.899l0,-51.118l19,0l0,51.118c0,12.857 -3.292,22.899 -9.899,30.095c-6.59,7.196 -15.75,10.78 -27.477,10.78c-11.851,0 -21.059,-3.566 -27.643,-10.696c-6.566,-7.132 -9.857,-17.155 -9.857,-30.053l0,-51.244l21.013,0Z" style="fill:#0047b6;fill-rule:nonzero;"/><path id="path8" d="M296.288,588.57l0,-7.193l32.194,-38.568l0.252,-0.314c5.978,-7.088 8.956,-12.584 8.956,-16.463c0,-3.167 -1.048,-5.746 -3.166,-7.782c-2.098,-2.034 -4.845,-3.04 -8.201,-3.04c-3.019,0 -5.642,0.985 -7.843,2.977c-2.224,1.993 -3.692,4.698 -4.425,8.096l-17.008,-8.43c2.579,-6.754 6.522,-11.996 11.83,-15.708c5.306,-3.713 11.514,-5.558 18.645,-5.558c8.578,0 15.75,2.706 21.581,8.117c5.809,5.411 8.725,12.143 8.725,20.218c0,4.95 -1.322,10.088 -3.943,15.394c-2.622,5.306 -6.69,10.989 -12.185,17.05l-11.681,12.962l31.962,0l-3,18.245l-62.687,0l-0.004,-0.003Zm95.028,-44.547c0,8.809 1.027,15.708 3.105,20.7c2.055,4.992 4.908,7.487 8.514,7.487c3.629,0 6.503,-2.474 8.557,-7.424c2.077,-4.971 3.105,-11.87 3.105,-20.763c0,-8.935 -1.027,-15.876 -3.063,-20.847c-2.055,-4.971 -4.929,-7.467 -8.599,-7.467c-3.566,0 -6.396,2.517 -8.494,7.53c-2.077,5.013 -3.126,11.933 -3.126,20.784l0.001,0Zm-20.386,0c0,-14.87 2.832,-26.488 8.514,-34.876c5.683,-8.369 13.486,-12.563 23.448,-12.563c9.962,0 17.805,4.195 23.51,12.604c5.725,8.39 8.578,20.008 8.578,34.836c0,14.828 -2.853,26.446 -8.578,34.836c-5.704,8.409 -13.547,12.605 -23.51,12.605c-9.962,0 -17.765,-4.195 -23.448,-12.563c-5.683,-8.39 -8.514,-20.008 -8.514,-34.878Zm71.119,44.547l0,-7.193l32.193,-38.568l0.252,-0.314c5.978,-7.088 8.956,-12.584 8.956,-16.463c0,-3.167 -1.048,-5.746 -3.166,-7.782c-2.098,-2.034 -4.845,-3.04 -8.201,-3.04c-3.019,0 -5.642,0.985 -7.845,2.977c-2.224,1.993 -3.692,4.698 -4.425,8.096l-17.008,-8.43c2.58,-6.754 6.522,-11.996 11.83,-15.708c5.306,-3.713 11.514,-5.558 18.645,-5.558c8.577,0 15.75,2.706 21.581,8.117c5.809,5.411 8.725,12.143 8.725,20.218c0,4.95 -1.321,10.088 -3.943,15.394c-2.622,5.306 -6.69,10.989 -12.185,17.05l-11.681,12.962l31.962,0l-3,18.245l-62.687,0l-0.001,-0.003Zm93.643,-28.941c0,3.774 1.237,6.983 3.711,9.627c2.476,2.642 5.474,3.964 8.998,3.964c3.524,0 6.522,-1.321 8.998,-3.964c2.474,-2.642 3.713,-5.851 3.713,-9.627c0,-3.817 -1.237,-7.025 -3.692,-9.648c-2.453,-2.622 -5.453,-3.943 -9.019,-3.943c-3.566,0 -6.564,1.322 -9.019,3.943c-2.453,2.622 -3.69,5.83 -3.69,9.648Zm12.459,-30.704c0.252,0 0.629,-0.021 1.111,-0.063c0.503,-0.042 0.881,-0.063 1.174,-0.063c8.935,0 16.212,2.916 21.853,8.725c5.642,5.809 8.453,13.318 8.453,22.482c0,8.893 -3.126,16.337 -9.354,22.337c-6.229,5.998 -14.01,8.998 -23.342,8.998c-9.019,0 -16.57,-3.167 -22.63,-9.522c-6.061,-6.354 -9.102,-14.346 -9.102,-23.972c0,-8.264 2.811,-17.199 8.453,-26.761c5.642,-9.564 14.304,-20.092 26.027,-31.606l23.784,0c-6.543,6.879 -11.786,12.52 -15.688,16.904c-3.921,4.384 -7.487,8.557 -10.738,12.541Z" style="fill:#0047b6;fill-rule:nonzero;"/><path id="polygon8" d="M754.943,361.587l13.63,0l-18.118,17.154l-8.054,0l12.543,-17.154Z" style="fill:#0047b6;fill-rule:nonzero;"/></g></g></g><defs><filter id="_Effect1" filterUnits="userSpaceOnUse" x="899.938" y="67.626" width="312.871" height="230.585"><feGaussianBlur in="SourceGraphic" stdDeviation="3.568"/></filter><filter id="_Effect2" filterUnits="userSpaceOnUse" x="906.009" y="68.997" width="246.108" height="139.287"><feGaussianBlur in="SourceGraphic" stdDeviation="2.957"/></filter><filter id="_Effect3" filterUnits="userSpaceOnUse" x="900.257" y="279.473" width="182.603" height="90.349"><feGaussianBlur in="SourceGraphic" stdDeviation="3.568"/></filter><filter id="_Effect4" filterUnits="userSpaceOnUse" x="904.243" y="284.125" width="178.175" height="66.326"><feGaussianBlur in="SourceGraphic" stdDeviation="2.957"/></filter><filter id="_Effect5" filterUnits="userSpaceOnUse" x="989.325" y="290.865" width="83.751" height="88.697"><feGaussianBlur in="SourceGraphic" stdDeviation="3.568"/></filter><filter id="_Effect6" filterUnits="userSpaceOnUse" x="947.62" y="306.843" width="82.547" height="87.317"><feGaussianBlur in="SourceGraphic" stdDeviation="3.568"/></filter><filter id="_Effect7" filterUnits="userSpaceOnUse" x="1218.579" y="314.521" width="312.871" height="230.585"><feGaussianBlur in="SourceGraphic" stdDeviation="3.568"/></filter><filter id="_Effect8" filterUnits="userSpaceOnUse" x="1348.439" y="241.93" width="182.603" height="90.349"><feGaussianBlur in="SourceGraphic" stdDeviation="3.568"/></filter><filter id="_Effect9" filterUnits="userSpaceOnUse" x="1352.606" y="244.468" width="173.8" height="81.949"><feGaussianBlur in="SourceGraphic" stdDeviation="2.957"/></filter><filter id="_Effect10" filterUnits="userSpaceOnUse" x="1359.607" y="228.238" width="83.751" height="88.697"><feGaussianBlur in="SourceGraphic" stdDeviation="3.568"/></filter><filter id="_Effect11" filterUnits="userSpaceOnUse" x="1402.195" y="212.131" width="82.547" height="87.317"><feGaussianBlur in="SourceGraphic" stdDeviation="3.568"/></filter><filter id="_Effect12" filterUnits="userSpaceOnUse" x="977.997" y="306.471" width="230.585" height="312.871"><feGaussianBlur in="SourceGraphic" stdDeviation="3.568"/></filter><filter id="_Effect13" filterUnits="userSpaceOnUse" x="1201.447" y="449.134" width="88.697" height="83.751"><feGaussianBlur in="SourceGraphic" stdDeviation="3.568"/></filter><filter id="_Effect14" filterUnits="userSpaceOnUse" x="1218.644" y="491.085" width="87.317" height="82.547"><feGaussianBlur in="SourceGraphic" stdDeviation="3.568"/></filter><filter id="_Effect15" filterUnits="userSpaceOnUse" x="1223.848" y="-9.39" width="230.585" height="312.871"><feGaussianBlur in="SourceGraphic" stdDeviation="3.568"/></filter><filter id="_Effect16" filterUnits="userSpaceOnUse" x="1150.987" y="-10.703" width="90.192" height="182.536"><feGaussianBlur in="SourceGraphic" stdDeviation="3.568"/></filter><filter id="_Effect17" filterUnits="userSpaceOnUse" x="1154.817" y="-6.015" width="83.078" height="173.689"><feGaussianBlur in="SourceGraphic" stdDeviation="2.957"/></filter><filter id="_Effect18" filterUnits="userSpaceOnUse" x="1233.815" y="-4.899" width="218.692" height="229.153"><feGaussianBlur in="SourceGraphic" stdDeviation="2.957"/></filter><filter id="_Effect19" filterUnits="userSpaceOnUse" x="1137.421" y="77.762" width="88.697" height="83.751"><feGaussianBlur in="SourceGraphic" stdDeviation="3.568"/></filter><filter id="_Effect20" filterUnits="userSpaceOnUse" x="1149.331" y="89.574" width="68.941" height="50.31"><feGaussianBlur in="SourceGraphic" stdDeviation="2.957"/></filter><filter id="_Effect21" filterUnits="userSpaceOnUse" x="1121.604" y="36.667" width="87.317" height="82.547"><feGaussianBlur in="SourceGraphic" stdDeviation="3.568"/></filter><filter id="_Effect22" filterUnits="userSpaceOnUse" x="1132.052" y="47.609" width="68.941" height="50.31"><feGaussianBlur in="SourceGraphic" stdDeviation="2.957"/></filter><filter id="_Effect23" filterUnits="userSpaceOnUse" x="978.944" y="371.653" width="127.776" height="141.641"><feGaussianBlur in="SourceGraphic" stdDeviation="2.957"/></filter><filter id="_Effect24" filterUnits="userSpaceOnUse" x="1299.914" y="401.289" width="211.413" height="125.283"><feGaussianBlur in="SourceGraphic" stdDeviation="2.957"/></filter><filter id="_Effect25" filterUnits="userSpaceOnUse" x="1415.921" y="222.428" width="57.887" height="46.165"><feGaussianBlur in="SourceGraphic" stdDeviation="2.957"/></filter><filter id="_Effect26" filterUnits="userSpaceOnUse" x="1374.072" y="238.752" width="57.887" height="46.165"><feGaussianBlur in="SourceGraphic" stdDeviation="2.957"/></filter><filter id="_Effect27" filterUnits="userSpaceOnUse" x="1341.358" y="314.723" width="183.964" height="108.983"><feGaussianBlur in="SourceGraphic" stdDeviation="2.957"/></filter><filter id="_Effect28" filterUnits="userSpaceOnUse" x="1348.812" y="378.984" width="106.143" height="72.155"><feGaussianBlur in="SourceGraphic" stdDeviation="2.957"/></filter><filter id="_Effect29" filterUnits="userSpaceOnUse" x="1190.585" y="438.321" width="90.958" height="182.861"><feGaussianBlur in="SourceGraphic" stdDeviation="3.568"/></filter><filter id="_Effect30" filterUnits="userSpaceOnUse" x="1212.14" y="460.013" width="65.873" height="45.683"><feGaussianBlur in="SourceGraphic" stdDeviation="2.957"/></filter><filter id="_Effect31" filterUnits="userSpaceOnUse" x="1229.942" y="501.697" width="65.873" height="45.683"><feGaussianBlur in="SourceGraphic" stdDeviation="2.957"/></filter><filter id="_Effect32" filterUnits="userSpaceOnUse" x="1198.028" y="443.731" width="80.124" height="168.128"><feGaussianBlur in="SourceGraphic" stdDeviation="2.957"/></filter><filter id="_Effect33" filterUnits="userSpaceOnUse" x="1067.116" y="431.356" width="138.608" height="91.11"><feGaussianBlur in="SourceGraphic" stdDeviation="2.957"/></filter><filter id="_Effect34" filterUnits="userSpaceOnUse" x="1074.686" y="476.513" width="67.421" height="74.991"><feGaussianBlur in="SourceGraphic" stdDeviation="2.957"/></filter><filter id="_Effect35" filterUnits="userSpaceOnUse" x="1004.835" y="473.257" width="193.285" height="132.089"><feGaussianBlur in="SourceGraphic" stdDeviation="2.957"/></filter><filter id="_Effect36" filterUnits="userSpaceOnUse" x="963.724" y="318.599" width="57.21" height="44.821"><feGaussianBlur in="SourceGraphic" stdDeviation="2.957"/></filter><filter id="_Effect37" filterUnits="userSpaceOnUse" x="1006.171" y="303.164" width="57.21" height="44.821"><feGaussianBlur in="SourceGraphic" stdDeviation="2.957"/></filter><filter id="_Effect38" filterUnits="userSpaceOnUse" x="970.194" y="157.281" width="120.286" height="80.663"><feGaussianBlur in="SourceGraphic" stdDeviation="2.957"/></filter><filter id="_Effect39" filterUnits="userSpaceOnUse" x="919.435" y="177.208" width="116.129" height="110.367"><feGaussianBlur in="SourceGraphic" stdDeviation="2.957"/></filter><radialGradient id="_Radial40" cx="0" cy="0" r="1" gradientUnits="userSpaceOnUse" gradientTransform="matrix(157.212885,0,0,157.212885,1216.875381,306.239614)"><stop offset="0" style="stop-color:#fff;stop-opacity:0"/><stop offset="0.7" style="stop-color:#0046af;stop-opacity:0"/><stop offset="0.87" style="stop-color:#0044ab;stop-opacity:0.2"/><stop offset="0.95" style="stop-color:#003996;stop-opacity:0.31"/><stop offset="1" style="stop-color:#002c80;stop-opacity:0.48"/></radialGradient><filter id="_Effect41" filterUnits="userSpaceOnUse" x="871.121" y="-62.368" width="691.508" height="691.508"><feGaussianBlur in="SourceGraphic" stdDeviation="37.853"/></filter><radialGradient id="_Radial42" cx="0" cy="0" r="1" gradientUnits="userSpaceOnUse" gradientTransform="matrix(241.091212,0,0,241.091212,1290.980933,211.37692)"><stop offset="0" style="stop-color:#5bcaff;stop-opacity:1"/><stop offset="1" style="stop-color:#0071de;stop-opacity:1"/></radialGradient><filter id="_Effect43" filterUnits="userSpaceOnUse" x="1062.556" y="121.281" width="319.327" height="392.56"><feGaussianBlur in="SourceGraphic" stdDeviation="11.25"/></filter><linearGradient id="_Linear44" x1="0" y1="0" x2="1" y2="0" gradientUnits="userSpaceOnUse" gradientTransform="matrix(-121.429595,36.997481,-36.997481,-121.429595,1365.082357,205.851631)"><stop offset="0" style="stop-color:#fff;stop-opacity:0.88"/><stop offset="1" style="stop-color:#fff;stop-opacity:0"/></linearGradient></defs></svg>